<svg id="visual" viewBox="0 0 960 540" width="960" height="540" xmlns="http://www.w3.org/2000/svg" xmlns:xlink="http://www.w3.org/1999/xlink" version="1.1"><rect x="0" y="0" width="960" height="540" fill="#001220"></rect><path d="M0 319L22.8 321C45.7 323 91.3 327 137 329.8C182.7 332.7 228.3 334.3 274 338C319.7 341.7 365.3 347.3 411.2 344.3C457 341.3 503 329.7 548.8 337C594.7 344.3 640.3 370.7 686 377.3C731.7 384 777.3 371 823 361.7C868.7 352.3 914.3 346.7 937.2 343.8L960 341L960 541L937.2 541C914.3 541 868.7 541 823 541C777.3 541 731.7 541 686 541C640.3 541 594.7 541 548.8 541C503 541 457 541 411.2 541C365.3 541 319.7 541 274 541C228.3 541 182.7 541 137 541C91.3 541 45.7 541 22.8 541L0 541Z" fill="#fa7268"></path><path d="M0 427L22.8 422.3C45.7 417.7 91.3 408.3 137 397.7C182.7 387 228.3 375 274 368.5C319.7 362 365.3 361 411.2 371.3C457 381.7 503 403.3 548.8 409.2C594.7 415 640.3 405 686 405.7C731.7 406.3 777.3 417.7 823 418.8C868.7 420 914.3 411 937.2 406.5L960 402L960 541L937.2 541C914.3 541 868.7 541 823 541C777.3 541 731.7 541 686 541C640.3 541 594.7 541 548.8 541C503 541 457 541 411.2 541C365.3 541 319.7 541 274 541C228.3 541 182.7 541 137 541C91.3 541 45.7 541 22.8 541L0 541Z" fill="#ef5f67"></path><path d="M0 423L22.8 428.2C45.7 433.3 91.3 443.7 137 439C182.7 434.3 228.3 414.7 274 412.7C319.7 410.7 365.3 426.3 411.2 435.7C457 445 503 448 548.8 440.2C594.7 432.3 640.3 413.7 686 405C731.7 396.3 777.3 397.7 823 407.2C868.7 416.7 914.3 434.3 937.2 443.2L960 452L960 541L937.2 541C914.3 541 868.7 541 823 541C777.3 541 731.7 541 686 541C640.3 541 594.7 541 548.8 541C503 541 457 541 411.2 541C365.3 541 319.7 541 274 541C228.3 541 182.7 541 137 541C91.3 541 45.7 541 22.8 541L0 541Z" fill="#e34c67"></path><path d="M0 458L22.8 458.3C45.7 458.7 91.3 459.3 137 464.2C182.7 469 228.3 478 274 477C319.7 476 365.3 465 411.2 462.2C457 459.3 503 464.7 548.8 465.7C594.7 466.7 640.3 463.3 686 459.5C731.7 455.7 777.3 451.3 823 454.2C868.7 457 914.3 467 937.2 472L960 477L960 541L937.2 541C914.3 541 868.7 541 823 541C777.3 541 731.7 541 686 541C640.3 541 594.7 541 548.8 541C503 541 457 541 411.2 541C365.3 541 319.7 541 274 541C228.3 541 182.7 541 137 541C91.3 541 45.7 541 22.8 541L0 541Z" fill="#d53867"></path><path d="M0 508L22.8 509.2C45.7 510.3 91.3 512.7 137 512.2C182.7 511.7 228.3 508.3 274 506.5C319.7 504.7 365.3 504.3 411.2 504.2C457 504 503 504 548.8 500.2C594.7 496.3 640.3 488.7 686 489.8C731.7 491 777.3 501 823 504.2C868.7 507.3 914.3 503.7 937.2 501.8L960 500L960 541L937.2 541C914.3 541 868.7 541 823 541C777.3 541 731.7 541 686 541C640.3 541 594.7 541 548.8 541C503 541 457 541 411.2 541C365.3 541 319.7 541 274 541C228.3 541 182.7 541 137 541C91.3 541 45.7 541 22.8 541L0 541Z" fill="#c62368"></path></svg>