<svg id="visual" width="1800" height="2000px" xmlns="http://www.w3.org/2000/svg" xmlns:xlink="http://www.w3.org/1999/xlink" version="1.1">
    <path d="M0 329L18.8 327.3C37.7 325.7 75.3 322.3 112.8 333.7C150.3 345 187.7 371 225.2 393C262.7 415 300.3 433 337.8 415.2C375.3 397.3 412.7 343.7 450.2 331.7C487.7 319.7 525.3 349.3 562.8 357C600.3 364.7 637.7 350.3 675.2 332.5C712.7 314.7 750.3 293.3 787.8 282C825.3 270.7 862.7 269.3 881.3 268.7L900 268L900 601L881.3 601C862.7 601 825.3 601 787.8 601C750.3 601 712.7 601 675.2 601C637.7 601 600.3 601 562.8 601C525.3 601 487.7 601 450.2 601C412.7 601 375.3 601 337.8 601C300.3 601 262.7 601 225.2 601C187.7 601 150.3 601 112.8 601C75.3 601 37.7 601 18.8 601L0 601Z" fill="#0066FF" stroke-linecap="round" stroke-linejoin="miter"></path>
    <path style="transform: translateX(1800px) rotateY(180deg)" d="M0 329L18.8 327.3C37.7 325.7 75.3 322.3 112.8 333.7C150.3 345 187.7 371 225.2 393C262.7 415 300.3 433 337.8 415.2C375.3 397.3 412.7 343.7 450.2 331.7C487.7 319.7 525.3 349.3 562.8 357C600.3 364.7 637.7 350.3 675.2 332.5C712.7 314.7 750.3 293.3 787.8 282C825.3 270.7 862.7 269.3 881.3 268.7L900 268L900 601L881.3 601C862.7 601 825.3 601 787.8 601C750.3 601 712.7 601 675.2 601C637.7 601 600.3 601 562.8 601C525.3 601 487.7 601 450.2 601C412.7 601 375.3 601 337.8 601C300.3 601 262.7 601 225.2 601C187.7 601 150.3 601 112.8 601C75.3 601 37.7 601 18.8 601L0 601Z" fill="#0066FF" stroke-linecap="round" stroke-linejoin="miter"></path>
</svg>