<svg id="visual" viewBox="0 0 900 600" width="900" height="600" xmlns="http://www.w3.org/2000/svg" xmlns:xlink="http://www.w3.org/1999/xlink" version="1.1"><rect x="0" y="0" width="900" height="600" fill="#002233"></rect><path d="M0 496L25 509.7C50 523.3 100 550.7 150 559C200 567.3 250 556.7 300 539.2C350 521.7 400 497.3 450 466.2C500 435 550 397 600 385.8C650 374.7 700 390.3 750 410.5C800 430.7 850 455.3 875 467.7L900 480L900 601L875 601C850 601 800 601 750 601C700 601 650 601 600 601C550 601 500 601 450 601C400 601 350 601 300 601C250 601 200 601 150 601C100 601 50 601 25 601L0 601Z" fill="#0066FF" stroke-linecap="round" stroke-linejoin="miter"></path></svg>