<svg id="visual" viewBox="0 0 1800 600" width="1800" height="600" xmlns="http://www.w3.org/2000/svg" xmlns:xlink="http://www.w3.org/1999/xlink" version="1.1">
    <!-- <rect x="0" y="0" width="900" height="600" fill="#002233"></rect> -->
    <path d="M0 306L21.5 328.2C43 350.3 86 394.7 128.8 417.5C171.7 440.3 214.3 441.7 257.2 422.8C300 404 343 365 385.8 342.2C428.7 319.3 471.3 312.7 514.2 313.7C557 314.7 600 323.3 642.8 339.7C685.7 356 728.3 380 771.2 390C814 400 857 396 878.5 394L900 392L900 601L878.5 601C857 601 814 601 771.2 601C728.3 601 685.7 601 642.8 601C600 601 557 601 514.2 601C471.3 601 428.7 601 385.8 601C343 601 300 601 257.2 601C214.3 601 171.7 601 128.8 601C86 601 43 601 21.5 601L0 601Z" fill="#0066FF" stroke-linecap="round" stroke-linejoin="miter"></path>
    <!-- <path style="transform: translateX(1800px) rotateY(180deg)" d="M0 306L21.5 328.2C43 350.3 86 394.7 128.8 417.5C171.7 440.3 214.3 441.7 257.2 422.8C300 404 343 365 385.8 342.2C428.7 319.3 471.3 312.7 514.2 313.7C557 314.7 600 323.3 642.8 339.7C685.7 356 728.3 380 771.2 390C814 400 857 396 878.5 394L900 392L900 601L878.5 601C857 601 814 601 771.2 601C728.3 601 685.7 601 642.8 601C600 601 557 601 514.2 601C471.3 601 428.7 601 385.8 601C343 601 300 601 257.2 601C214.3 601 171.7 601 128.8 601C86 601 43 601 21.5 601L0 601Z" fill="#0066FF" stroke-linecap="round" stroke-linejoin="miter"></path> -->
</svg>